<?xml version="1.0" standalone="no"?>
<!DOCTYPE svg PUBLIC "-//W3C//DTD SVG 20010904//EN"
 "http://www.w3.org/TR/2001/REC-SVG-20010904/DTD/svg10.dtd">
<svg version="1.0" xmlns="http://www.w3.org/2000/svg"
 width="480.000000pt" height="480.000000pt" viewBox="0 0 480.000000 480.000000"
 preserveAspectRatio="xMidYMid meet">

<g transform="translate(0.000000,480.000000) scale(0.100000,-0.100000)"
fill="#000000" stroke="none">
<path d="M1216 4624 c-249 -45 -485 -166 -667 -341 -195 -188 -327 -439 -375
-713 -24 -138 -15 -369 19 -505 153 -603 611 -1285 1477 -2194 232 -243 718
-713 733 -708 6 2 79 68 163 148 l152 144 1 235 1 235 -153 -153 c-84 -83
-159 -152 -167 -152 -24 0 -533 518 -786 800 -547 610 -915 1154 -1057 1565
-118 340 -89 634 87 899 201 301 550 465 906 426 168 -18 314 -75 447 -174 57
-42 103 -87 331 -326 l72 -75 66 70 c284 299 340 347 479 418 98 49 187 74
308 87 298 32 582 -72 793 -291 177 -185 265 -397 267 -644 0 -138 -17 -238
-70 -390 -53 -152 -182 -413 -277 -557 l-18 -28 194 0 195 0 75 153 c159 320
228 566 228 813 0 334 -126 645 -357 885 -242 251 -569 389 -923 389 -339 0
-637 -117 -875 -342 l-85 -80 -85 80 c-182 173 -403 283 -654 326 -116 20
-335 20 -445 0z"/>
<path d="M3680 1760 l0 -320 -320 0 -320 0 0 -160 0 -160 320 0 320 0 0 -320
0 -320 160 0 160 0 0 320 0 320 320 0 320 0 0 160 0 160 -320 0 -320 0 0 320
0 320 -160 0 -160 0 0 -320z"/>
</g>
</svg>
