<?xml version="1.0" standalone="no"?>
<!DOCTYPE svg PUBLIC "-//W3C//DTD SVG 20010904//EN"
 "http://www.w3.org/TR/2001/REC-SVG-20010904/DTD/svg10.dtd">
<svg version="1.0" xmlns="http://www.w3.org/2000/svg"
 width="480.000000pt" height="480.000000pt" viewBox="0 0 480.000000 480.000000"
 preserveAspectRatio="xMidYMid meet">

<g transform="translate(0.000000,480.000000) scale(0.100000,-0.100000)"
fill="#000000" stroke="none">
<path d="M1300 4644 c-14 -2 -56 -9 -95 -15 -100 -16 -215 -54 -330 -109 -358
-171 -615 -501 -701 -902 -28 -129 -26 -390 4 -526 77 -344 250 -688 592
-1176 179 -255 499 -635 833 -987 216 -228 771 -773 792 -777 9 -2 86 65 175
150 l160 153 0 233 c0 161 -3 232 -11 232 -6 0 -78 -64 -161 -142 -82 -79
-154 -144 -159 -146 -12 -5 -467 455 -688 696 -329 359 -608 707 -802 1000
-49 73 -89 135 -89 137 0 2 -21 39 -47 82 -167 281 -283 616 -283 818 0 155
56 345 142 486 68 111 206 249 317 317 314 192 705 186 1008 -15 72 -48 212
-181 333 -317 51 -59 101 -106 110 -106 9 0 59 47 110 106 192 216 314 319
462 389 127 60 213 78 378 79 157 0 225 -12 349 -61 244 -97 449 -301 545
-544 130 -332 60 -682 -236 -1182 -32 -55 -58 -105 -58 -113 0 -12 34 -14 194
-14 l194 0 45 83 c111 206 207 459 244 642 25 124 24 386 -1 505 -52 245 -164
457 -335 634 -187 193 -407 315 -671 372 -120 26 -401 26 -520 1 -241 -51
-425 -146 -621 -319 l-78 -69 -88 77 c-188 165 -375 260 -611 310 -73 15 -346
28 -402 18z"/>
<path d="M3677 2083 c-4 -3 -7 -147 -7 -320 l0 -313 -317 -2 -318 -3 -3 -167
-2 -168 320 0 320 0 2 -317 3 -318 168 -3 167 -2 0 320 0 320 320 0 320 0 -2
168 -3 167 -317 3 -318 2 0 320 0 320 -163 0 c-90 0 -167 -3 -170 -7z"/>
</g>
</svg>
